<svg width="877" height="812" viewBox="0 0 877 812" fill="none" xmlns="http://www.w3.org/2000/svg">
<path fill-rule="evenodd" clip-rule="evenodd" d="M438.43 448.648C433.66 452.462 428.343 455.613 422.629 457.953L276.558 797.852C271.12 810.506 255.855 815.576 243.927 808.689L168.003 764.854C156.075 757.968 152.833 742.213 161.073 731.176L366.368 456.198L48.2334 370.954C0.644958 358.202 -15.2942 298.717 19.543 263.879L263.88 19.5429C298.717 -15.2942 358.202 0.644867 370.954 48.2334L438.883 301.749L506.65 48.8372C519.402 1.24887 578.887 -14.6903 613.724 20.1469L858.061 264.483C892.898 299.321 876.959 358.806 829.371 371.558L508.966 457.41L713.357 731.176C721.597 742.213 718.355 757.968 706.427 764.854L630.503 808.689C618.575 815.576 603.31 810.506 597.872 797.852L451.369 456.948C446.725 454.701 442.383 451.905 438.43 448.648Z" fill="#FFB800"/>
</svg>
