<svg width="588" height="538" viewBox="0 0 588 538" fill="none" xmlns="http://www.w3.org/2000/svg">
<mask id="path-1-inside-1_63_6" fill="white">
<path fill-rule="evenodd" clip-rule="evenodd" d="M294.532 50.9707C294.375 50.812 294.217 50.6536 294.059 50.4954C226.85 -16.7132 117.883 -16.7132 50.6746 50.4954C-16.4476 117.618 -16.5339 226.391 50.4158 293.62L49.683 294.353L293.067 537.737L523.281 307.523C528.175 303.597 532.904 299.365 537.442 294.826C604.651 227.618 604.651 118.651 537.442 51.4424C470.391 -15.6086 361.778 -15.7659 294.532 50.9707Z"/>
</mask>
<path fill-rule="evenodd" clip-rule="evenodd" d="M294.532 50.9707C294.375 50.812 294.217 50.6536 294.059 50.4954C226.85 -16.7132 117.883 -16.7132 50.6746 50.4954C-16.4476 117.618 -16.5339 226.391 50.4158 293.62L49.683 294.353L293.067 537.737L523.281 307.523C528.175 303.597 532.904 299.365 537.442 294.826C604.651 227.618 604.651 118.651 537.442 51.4424C470.391 -15.6086 361.778 -15.7659 294.532 50.9707Z" fill="#FF6C6C"/>
<path d="M294.532 50.9707L287.434 58.0146L294.478 65.1128L301.576 58.0686L294.532 50.9707ZM50.4158 293.62L57.4869 300.691L64.5432 293.635L57.5016 286.564L50.4158 293.62ZM49.683 294.353L42.6119 287.282L35.5408 294.353L42.6119 301.424L49.683 294.353ZM293.067 537.737L285.996 544.808L293.067 551.879L300.138 544.808L293.067 537.737ZM523.281 307.523L517.024 299.722L516.597 300.065L516.21 300.452L523.281 307.523ZM301.63 43.9267C301.464 43.759 301.297 43.5915 301.13 43.4243L286.987 57.5664C287.137 57.7156 287.285 57.865 287.434 58.0146L301.63 43.9267ZM301.13 43.4243C230.016 -27.6896 114.717 -27.6896 43.6035 43.4243L57.7457 57.5664C121.049 -5.73694 223.684 -5.73694 286.987 57.5664L301.13 43.4243ZM43.6035 43.4243C-27.419 114.447 -27.5102 229.54 43.33 300.676L57.5016 286.564C-5.55756 223.241 -5.47625 120.788 57.7457 57.5664L43.6035 43.4243ZM43.3448 286.549L42.6119 287.282L56.754 301.424L57.4869 300.691L43.3448 286.549ZM42.6119 301.424L285.996 544.808L300.138 530.666L56.754 287.282L42.6119 301.424ZM300.138 544.808L530.352 314.594L516.21 300.452L285.996 530.666L300.138 544.808ZM530.371 287.755C526.091 292.036 521.634 296.024 517.024 299.722L529.538 315.323C534.716 311.17 539.717 306.694 544.513 301.897L530.371 287.755ZM530.371 58.5135C593.675 121.817 593.675 224.452 530.371 287.755L544.513 301.897C615.627 230.783 615.627 115.485 544.513 44.3713L530.371 58.5135ZM301.576 58.0686C364.914 -4.78956 467.217 -4.64132 530.371 58.5135L544.513 44.3713C473.566 -26.5759 358.642 -26.7422 287.488 43.8728L301.576 58.0686Z" fill="#AB4E4E" mask="url(#path-1-inside-1_63_6)"/>
</svg>
